<!DOCTYPE svg PUBLIC "-//W3C//DTD SVG 20010904//EN" "http://www.w3.org/TR/2001/REC-SVG-20010904/DTD/svg10.dtd">
<svg version="1.0" xmlns="http://www.w3.org/2000/svg" width="700px" height="700px" viewBox="0 0 7000 7000" preserveAspectRatio="xMidYMid meet">
<g id="layer101" fill="#6f64fd" stroke="none">
 <path d="M3461 6468 c-61 -10 -115 -49 -148 -105 -26 -45 -28 -54 -31 -204 l-4 -157 -112 -16 c-431 -66 -828 -228 -1162 -476 -52 -39 -101 -70 -110 -70 -8 0 -60 42 -114 94 -120 115 -146 130 -225 130 -107 0 -190 -64 -221 -171 -14 -48 -15 -65 -5 -102 15 -58 38 -88 144 -198 l89 -92 -75 -103 c-252 -346 -407 -719 -477 -1149 -11 -68 -20 -127 -20 -131 0 -5 -62 -8 -137 -8 -151 0 -192 -8 -242 -44 -139 -103 -123 -307 32 -396 l52 -30 941 0 940 0 18 -57 c10 -32 34 -93 54 -136 l35 -78 -388 -389 -389 -389 -27 32 c-15 18 -71 100 -124 184 -76 120 -106 159 -142 182 -82 54 -188 51 -263 -7 -48 -38 -90 -123 -90 -181 1 -84 72 -218 229 -436 l79 -109 -95 -100 c-52 -54 -103 -116 -114 -137 -25 -50 -25 -149 0 -205 50 -111 196 -163 302 -109 14 8 74 59 133 115 66 61 112 98 119 93 7 -4 53 -37 102 -73 333 -244 733 -409 1140 -470 39 -5 85 -12 103 -15 l32 -6 0 -136 c0 -158 10 -198 62 -258 51 -57 107 -79 192 -73 83 5 138 41 175 113 24 45 26 62 30 202 2 84 5 153 7 153 2 0 50 7 106 15 443 67 847 236 1191 497 90 69 69 75 203 -53 113 -108 141 -123 219 -123 107 1 190 65 221 170 30 103 11 145 -127 291 -57 61 -96 110 -92 117 4 6 37 52 73 101 253 343 403 719 480 1203 l12 72 129 0 c72 0 150 5 174 11 50 13 118 66 142 113 21 39 33 105 22 112 -5 3 -9 18 -9 33 0 70 -72 160 -153 190 -19 8 -330 11 -960 11 l-932 0 -24 68 c-12 37 -38 99 -56 138 l-33 72 387 386 c212 212 389 386 393 386 12 0 81 -98 154 -216 106 -174 158 -216 264 -216 72 0 119 22 169 78 44 50 66 116 58 175 -10 74 -96 225 -250 437 l-60 82 100 103 c113 116 133 152 133 231 0 135 -93 230 -225 230 -79 0 -105 -15 -225 -130 -54 -52 -106 -94 -115 -94 -9 0 -42 19 -73 43 -207 158 -460 293 -714 382 -120 42 -348 99 -463 115 -44 6 -92 13 -107 16 l-28 6 0 135 c0 155 -10 197 -58 253 -56 66 -134 94 -221 78z m-181 -1492 l0 -554 -52 -18 c-29 -9 -91 -34 -138 -56 l-84 -39 -394 394 -394 394 93 66 c244 169 512 285 809 348 47 9 102 18 123 18 l37 1 0 -554z m629 528 c289 -59 523 -158 771 -324 47 -32 91 -65 99 -74 12 -14 -33 -62 -375 -406 l-389 -391 -85 39 c-47 22 -109 48 -137 58 l-53 19 0 552 0 553 21 0 c12 0 78 -12 148 -26z m-1593 -1157 l362 -359 -33 -72 c-18 -39 -44 -101 -56 -138 l-24 -68 -554 0 -554 0 7 55 c10 92 81 354 126 465 62 159 203 413 277 500 l26 31 31 -28 c17 -15 194 -189 392 -386z m1293 -372 c243 -58 404 -256 402 -495 -1 -128 -6 -156 -40 -225 -83 -168 -267 -285 -450 -285 -85 0 -206 36 -273 80 -108 72 -196 197 -219 312 -5 29 -14 73 -19 98 -13 59 9 162 51 249 60 122 193 226 340 265 70 19 129 19 208 1z m1961 -752 c0 -31 -39 -204 -70 -314 -37 -130 -93 -270 -160 -396 -62 -118 -190 -313 -205 -313 -6 0 -186 172 -399 383 l-389 382 35 70 c19 39 45 100 57 138 l23 67 554 0 c521 0 554 -1 554 -17z m-2469 -622 c46 -21 108 -47 137 -57 l52 -19 0 -547 0 -548 -35 0 c-41 0 -240 42 -340 71 -108 32 -260 95 -363 150 -99 52 -283 171 -303 195 -10 12 57 83 377 404 213 215 389 390 390 390 0 0 39 -18 85 -39z m1313 -350 c214 -214 386 -393 382 -399 -15 -25 -245 -168 -364 -228 -193 -96 -448 -174 -639 -197 l-43 -5 0 552 0 553 83 31 c45 18 105 43 132 56 28 14 52 25 55 25 3 1 180 -174 394 -388z"/>
 </g>

</svg>