<svg xmlns="http://www.w3.org/2000/svg" height="885pt" version="1.1" viewBox="-214 0 885 885.00102" width="885pt">
<g id="surface1">
<path d="M 147.496094 14.753906 C 147.496094 6.601562 140.894531 0 132.75 0 L 103.25 0 C 62.539062 0.046875 29.550781 33.035156 29.5 73.746094 L 29.5 88.5 L 0 88.5 L 0 118 L 29.5 118 L 29.5 302.375 C 29.542969 320.9375 38.277344 338.402344 53.101562 349.574219 L 147.042969 420.054688 L 132.75 662.882812 C 132.269531 671.011719 138.472656 677.992188 146.605469 678.476562 C 146.902344 678.488281 147.199219 678.503906 147.507812 678.496094 L 167.886719 678.496094 L 153.132812 708 L 88.507812 708 L 88.507812 737.5 L 108.886719 737.5 L 118.007812 755.730469 L 118.007812 837.265625 L 108.886719 855.5 L 88.507812 855.5 L 88.507812 885 L 413.003906 885 L 413.003906 855.5 L 392.621094 855.5 L 383.503906 837.269531 L 383.503906 755.730469 L 392.621094 737.5 L 413.003906 737.5 L 413.003906 708.003906 L 339.253906 708.003906 L 339.253906 678.503906 L 354.003906 678.503906 C 362.152344 678.527344 368.773438 671.941406 368.796875 663.796875 C 368.800781 663.390625 368.785156 662.988281 368.753906 662.589844 L 354.859375 486.753906 L 383.503906 486.753906 C 389.65625 486.753906 395.160156 482.933594 397.320312 477.179688 L 399.253906 472 L 427.75 472 C 434.515625 472 440.417969 467.398438 442.058594 460.832031 L 456.808594 401.835938 C 458.789062 393.933594 453.988281 385.921875 446.085938 383.941406 C 444.914062 383.652344 443.710938 383.496094 442.503906 383.496094 L 432.445312 383.496094 L 441.578125 359.175781 C 444.429688 351.550781 440.566406 343.050781 432.941406 340.1875 C 431.277344 339.570312 429.527344 339.253906 427.753906 339.253906 L 342.355469 339.253906 C 337.625 315.03125 320.972656 294.847656 298.097656 285.585938 C 305.628906 275.53125 309.707031 263.3125 309.753906 250.75 L 309.753906 221.25 L 339.253906 221.25 L 339.253906 191.75 L 309.753906 191.75 L 309.753906 177 C 309.699219 174.621094 309.058594 172.304688 307.898438 170.226562 L 334.933594 143.179688 L 314.066406 122.320312 L 286.445312 149.949219 C 279.960938 146.078125 272.890625 143.296875 265.503906 141.734375 L 265.503906 97.480469 L 235.996094 97.480469 L 235.996094 141.734375 C 228.613281 143.300781 221.539062 146.078125 215.054688 149.949219 L 187.429688 122.320312 L 166.570312 143.179688 L 193.609375 170.226562 C 192.445312 172.304688 191.804688 174.621094 191.75 177 L 191.75 191.75 L 162.25 191.75 L 162.25 221.25 L 191.75 221.25 L 191.75 250.75 C 191.816406 261.136719 194.644531 271.324219 199.957031 280.25 L 167.160156 280.25 L 117.996094 243.375 L 117.996094 227.359375 L 128.429688 216.925781 C 131.191406 214.167969 132.75 210.410156 132.75 206.5 L 132.75 162.25 C 132.75 154.109375 126.148438 147.5 117.996094 147.5 L 117.996094 118 L 147.496094 118 L 147.496094 88.5 L 132.367188 88.5 C 142.125 75.8125 147.441406 60.257812 147.496094 44.246094 Z M 59 73.746094 C 59 49.3125 78.8125 29.5 103.25 29.5 L 118.007812 29.5 L 118.007812 44.246094 C 118.007812 68.6875 98.183594 88.5 73.75 88.5 L 59 88.5 Z M 103.25 200.390625 L 92.824219 210.828125 C 90.054688 213.585938 88.507812 217.335938 88.496094 221.25 L 88.496094 295.003906 C 88.496094 303.148438 81.894531 309.753906 73.75 309.753906 C 65.601562 309.753906 58.996094 303.148438 58.996094 295.003906 L 58.996094 177 L 103.25 177 Z M 141.15625 378.753906 C 162.871094 369.449219 176.96875 348.121094 176.996094 324.496094 L 176.996094 309.753906 L 270.414062 309.753906 C 274.238281 309.796875 278.046875 310.335938 281.738281 311.355469 L 162.542969 394.78125 Z M 313.554688 344.105469 C 313.453125 344.226562 313.40625 344.382812 313.300781 344.503906 C 312.195312 345.78125 311.308594 347.25 310.679688 348.824219 L 296.476562 386.75 L 172.1875 495.378906 L 176.617188 420.996094 L 307.328125 329.550781 C 310.277344 333.980469 312.378906 338.910156 313.554688 344.105469 Z M 268.125 480.40625 C 270.878906 484.378906 275.414062 486.753906 280.246094 486.75 L 285.488281 486.75 L 166.203125 596.882812 L 169.746094 536.679688 L 274.601562 445.039062 L 266.433594 466.824219 C 264.730469 471.355469 265.367188 476.429688 268.125 480.40625 Z M 163.722656 639.371094 L 325.535156 489.964844 L 329.203125 536.695312 L 229.375 648.996094 L 163.144531 648.996094 Z M 338.042969 648.996094 L 268.847656 648.996094 L 332.40625 577.488281 Z M 355.476562 847.34375 L 359.558594 855.5 L 141.871094 855.5 L 145.949219 847.34375 C 146.976562 845.296875 147.507812 843.03125 147.496094 840.75 L 147.496094 752.25 C 147.507812 749.964844 146.976562 747.707031 145.949219 745.652344 L 141.871094 737.5 L 359.640625 737.5 L 355.554688 745.652344 C 354.53125 747.707031 354.003906 749.964844 354.003906 752.25 L 354.003906 840.75 C 353.976562 843.03125 354.480469 845.296875 355.476562 847.34375 Z M 309.746094 708.003906 L 186.113281 708.003906 L 200.863281 678.503906 L 309.746094 678.503906 Z M 416.226562 442.5 L 387.648438 442.5 L 395.015625 412.996094 L 423.605469 412.996094 Z M 400.933594 383.496094 L 383.503906 383.496094 C 376.734375 383.496094 370.835938 388.101562 369.191406 394.667969 L 354.441406 453.664062 C 354.148438 454.839844 354.003906 456.042969 354.003906 457.25 L 301.535156 457.25 L 334.71875 368.753906 L 406.464844 368.753906 Z M 221.253906 182.339844 C 237.550781 166.0625 263.945312 166.0625 280.246094 182.339844 L 280.246094 191.75 L 221.253906 191.75 Z M 221.253906 250.75 L 221.253906 221.25 L 280.246094 221.25 L 280.246094 250.75 C 280.246094 267.042969 267.039062 280.25 250.753906 280.25 C 234.460938 280.25 221.253906 267.042969 221.253906 250.75 Z M 147.496094 302.375 L 147.496094 324.496094 C 147.496094 340.792969 134.292969 353.996094 118.007812 353.996094 L 108.160156 353.996094 L 86.15625 337.480469 C 87.234375 337.171875 88.222656 336.683594 89.253906 336.296875 C 90.285156 335.917969 90.917969 335.707031 91.730469 335.355469 C 93.679688 334.472656 95.550781 333.445312 97.351562 332.289062 C 97.78125 332.019531 98.234375 331.816406 98.648438 331.535156 C 100.796875 330.0625 102.8125 328.398438 104.671875 326.570312 C 105.195312 326.054688 105.640625 325.457031 106.144531 324.929688 C 107.429688 323.554688 108.628906 322.097656 109.742188 320.578125 C 110.289062 319.792969 110.773438 318.996094 111.21875 318.1875 C 112.121094 316.726562 112.941406 315.21875 113.675781 313.65625 C 114.089844 312.773438 114.492188 311.90625 114.847656 310.992188 C 115.496094 309.285156 116.035156 307.535156 116.464844 305.753906 C 116.691406 304.898438 116.953125 304.085938 117.113281 303.234375 C 117.664062 300.527344 117.960938 297.765625 117.996094 295.003906 L 117.996094 280.25 Z M 88.496094 147.5 L 59 147.5 L 59 118 L 88.496094 118 Z M 88.496094 147.5 " style=" stroke:none;fill-rule:nonzero;fill:rgb(0%,0%,0%);fill-opacity:1;" />
<path d="M 235.996094 767 L 265.503906 767 L 265.503906 811.25 L 235.996094 811.25 Z M 235.996094 767 " style=" stroke:none;fill-rule:nonzero;fill:rgb(0%,0%,0%);fill-opacity:1;" />
<path d="M 176.996094 767 L 206.496094 767 L 206.496094 811.25 L 176.996094 811.25 Z M 176.996094 767 " style=" stroke:none;fill-rule:nonzero;fill:rgb(0%,0%,0%);fill-opacity:1;" />
<path d="M 295.003906 767 L 324.503906 767 L 324.503906 811.25 L 295.003906 811.25 Z M 295.003906 767 " style=" stroke:none;fill-rule:nonzero;fill:rgb(0%,0%,0%);fill-opacity:1;" />
</g>
</svg>