<svg height="480pt" viewBox="-16 0 480 480.12271" width="480pt" xmlns="http://www.w3.org/2000/svg"><path d="m109.285156 90.800781-10.445312-12.117187c-26.886719 23.136718-46.851563 53.261718-57.683594 87.039062l15.203125 4.878906c9.941406-30.972656 28.261719-58.589843 52.925781-79.800781zm0 0"/><path d="m147.558594 65.632812-6.992188-14.398437c-8.542968 4.144531-16.769531 8.914063-24.609375 14.273437l9.03125 13.207032c7.195313-4.90625 14.738281-9.277344 22.570313-13.082032zm0 0"/><path d="m32.476562 469.59375c-.8125 2.4375-.402343 5.121094 1.101563 7.203125 1.5 2.085937 3.914063 3.324219 6.484375 3.324219h368c2.570312 0 4.980469-1.238282 6.484375-3.324219 1.503906-2.082031 1.910156-4.765625 1.097656-7.203125l-30.109375-90.34375c69.898438-72.699219 82.59375-183.152344 31.011719-269.816406-51.582031-86.664063-154.71875-128.171875-251.953125-101.394532-97.234375 26.773438-164.5859375 115.230469-164.53125 216.082032-.1445312 57.878906 22.289062 113.53125 62.527344 155.128906zm364.480469-5.472656h-345.789062l26.660156-80h292.464844zm-160.574219-216 34.289063 40h-74.929687l-34.289063-40zm-20.320312-16v-16h16v16zm64 72v64h-80v-64zm-96-5.039063v69.039063h-16v-48c0-4.417969-3.582031-8-8-8h-32c-4.417969 0-8 3.582031-8 8v48h-16v-69.039063l40-46.664062zm-32 29.039063v40h-16v-40zm158.496094-44.671875c-1.503906-2.089844-3.921875-3.328125-6.496094-3.328125h-4.183594l11.613282-29.023438c.988281-2.464844.691406-5.261718-.800782-7.460937-1.488281-2.199219-3.972656-3.515625-6.628906-3.515625h-2.207031l18.207031-31.871094 18.207031 31.871094h-2.207031c-2.65625 0-5.140625 1.316406-6.632812 3.515625-1.488282 2.199219-1.789063 4.996093-.800782 7.460937l11.617188 29.023438h-4.183594c-2.570312.003906-4.984375 1.238281-6.484375 3.324218-1.503906 2.085938-1.914063 4.765626-1.101563 7.207032l12.480469 37.46875h-41.789062l12.476562-37.46875c.816407-2.4375.410157-5.117188-1.085937-7.203125zm1.503906 60.671875v24h-16v-24zm-296-120c-.046875-93.636719 62.480469-175.765625 152.757812-200.632813 90.277344-24.871093 186.042969 13.652344 233.953126 94.105469 47.910156 80.453125 36.15625 183.003906-28.71875 250.527344h-45.992188v-24h24c2.570312 0 4.980469-1.238282 6.484375-3.324219 1.503906-2.082031 1.910156-4.765625 1.097656-7.203125l-12.476562-37.472656h4.894531c2.65625.003906 5.140625-1.3125 6.628906-3.511719 1.492188-2.199219 1.789063-4.996094.800782-7.460937l-11.613282-29.027344h4.183594c2.859375.007812 5.507812-1.515625 6.941406-3.992188 1.429688-2.476562 1.433594-5.527344.003906-8.007812l-32-56c-1.542968-2.332032-4.148437-3.734375-6.945312-3.734375s-5.40625 1.402343-6.945312 3.734375l-32 56c-1.429688 2.480468-1.429688 5.53125.003906 8.007812 1.433594 2.476563 4.078125 4 6.941406 3.992188h4.183594l-8.886719 22.226562-35.296875-41.175781v-29.050781c0-4.417969-3.582031-8-8-8h-32c-4.417969 0-8 3.582031-8 8v24h-56c-1.136719.023437-2.253906.296875-3.273438.800781h-.09375c-1.019531.453125-1.933593 1.117187-2.679687 1.945313l-48 56c-1.265625 1.457031-1.957031 3.324218-1.953125 5.253906v72h-13.992188c-37.332031-38.625-58.140624-90.28125-58.007812-144zm0 0"/><path d="m296.0625 400.121094h-144c-4.417969 0-8 3.582031-8 8v32c0 4.417968 3.582031 8 8 8h144c4.417969 0 8-3.582032 8-8v-32c0-4.417969-3.582031-8-8-8zm-8 32h-128v-16h128zm0 0"/><path d="m216.0625 320.121094h16v24h-16zm0 0"/><path d="m248.0625 320.121094h16v24h-16zm0 0"/><path d="m192.0625 144.121094h16v16h-16zm0 0"/><path d="m160.0625 96.121094h16v16h-16zm0 0"/><path d="m384.0625 208.121094h16v16h-16zm0 0"/><path d="m344.0625 128.121094h16v16h-16zm0 0"/><path d="m40.0625 248.121094h16v16h-16zm0 0"/><path d="m232.0625 40.121094h16v16h-16zm0 0"/><path d="m264.0625 112.121094h16v16h-16zm0 0"/><path d="m88.0625 184.121094h16v16h-16zm0 0"/></svg>