<?xml version="1.0"?>
<svg xmlns="http://www.w3.org/2000/svg" viewBox="0 0 512 512" width="512" height="512" fill="#ffffff">
    <path stroke="#ffffff" stroke-width="5" stroke-linecap="round" stroke-linejoin="round"
          d="M456,88a32,32,0,1,0-32,32A32.036,32.036,0,0,0,456,88Zm-48,0a16,16,0,1,1,16,16A16.019,16.019,0,0,1,408,88Z"/>
    <path stroke="#ffffff" stroke-width="5" stroke-linecap="round" stroke-linejoin="round"
          d="M495.944,85.036a71.994,71.994,0,0,0-123.53-47.255,83.92,83.92,0,0,0-57.979-21.77l.29,16a68.02,68.02,0,0,1,52.124,22.865,8,8,0,0,0,12.373-.5,56,56,0,1,1,78.407,78.407,8,8,0,0,0-.5,12.373A67.985,67.985,0,0,1,411.989,264h-.133a68.023,68.023,0,0,1-67.122-57.987,8,8,0,0,0-13.571-4.49L304,228.687,283.313,208l27.164-27.163a8,8,0,0,0-4.49-13.571A68,68,0,0,1,298.122,34.4l-4.244-15.426A84.009,84.009,0,0,0,289.1,179.588l-17.1,17.1-2.343-2.344a30.628,30.628,0,0,0-43.314,43.314L228.687,240,18.343,450.343a8,8,0,0,0,0,11.314l32,32a8,8,0,0,0,11.314,0L104,451.313l42.343,42.344a8,8,0,0,0,11.314,0l24-24a8,8,0,0,0,0-11.314L163.313,440,176,427.313l18.343,18.344a8,8,0,0,0,11.314,0l24-24a8,8,0,0,0,0-11.314L187.313,368l74.344-74.343-11.314-11.314L56,476.686,35.314,456,240,251.313l34.343,34.344a30.628,30.628,0,1,0,43.314-43.314L315.313,240l17.1-17.1A84.046,84.046,0,0,0,411.824,280h.163c45.5,0,83.163-36.946,84-82.435a83.945,83.945,0,0,0-21.77-57.979A72.158,72.158,0,0,0,495.944,85.036ZM212.687,416,200,428.687l-18.343-18.344a8,8,0,0,0-11.314,0l-24,24a8,8,0,0,0,0,11.314L164.687,464,152,476.687,115.313,440,176,379.313Zm93.656-141.657a14.644,14.644,0,0,1-20.686,0l-48-48a14.627,14.627,0,0,1,20.686-20.686l48,48A14.644,14.644,0,0,1,306.343,274.343Z"/>
    <path stroke="#ffffff" stroke-width="5" stroke-linecap="round" stroke-linejoin="round"
          d="M316,144a44,44,0,1,0-44-44A44.049,44.049,0,0,0,316,144Zm0-72a28,28,0,1,1-28,28A28.032,28.032,0,0,1,316,72Z"/>
    <path stroke="#ffffff" stroke-width="5" stroke-linecap="round" stroke-linejoin="round"
          d="M368,196a44,44,0,1,0,44-44A44.049,44.049,0,0,0,368,196Zm44-28a28,28,0,1,1-28,28A28.032,28.032,0,0,1,412,168Z"/>
</svg>
